<?xml version="1.0" encoding="UTF-8" standalone="no"?>
<!-- Created with Inkscape (http://www.inkscape.org/) -->

<svg
   width="600mm"
   height="400mm"
   viewBox="0 0 600 400"
   version="1.1"
   id="svg1"
   inkscape:version="1.3.2 (091e20e, 2023-11-25, custom)"
   sodipodi:docname="Frontplatte_unterstesElement.svg"
   inkscape:export-filename="..\Drucken\Seriendruck\Frontplatte_unterstesElement_v3.svg"
   inkscape:export-xdpi="96"
   inkscape:export-ydpi="96"
   xmlns:inkscape="http://www.inkscape.org/namespaces/inkscape"
   xmlns:sodipodi="http://sodipodi.sourceforge.net/DTD/sodipodi-0.dtd"
   xmlns="http://www.w3.org/2000/svg"
   xmlns:svg="http://www.w3.org/2000/svg">
  <sodipodi:namedview
     id="namedview1"
     pagecolor="#ffffff"
     bordercolor="#000000"
     borderopacity="0.25"
     inkscape:showpageshadow="2"
     inkscape:pageopacity="0.0"
     inkscape:pagecheckerboard="0"
     inkscape:deskcolor="#d1d1d1"
     inkscape:document-units="mm"
     inkscape:zoom="0.70710678"
     inkscape:cx="1588.8689"
     inkscape:cy="505.58135"
     inkscape:window-width="1920"
     inkscape:window-height="991"
     inkscape:window-x="-9"
     inkscape:window-y="-9"
     inkscape:window-maximized="1"
     inkscape:current-layer="layer1" />
  <defs
     id="defs1" />
  <g
     inkscape:label="Rahmen"
     inkscape:groupmode="layer"
     id="layer1">
    <path
       style="fill:#ffffff;fill-opacity:0;stroke:#000000;stroke-width:0.0588237;paint-order:markers fill stroke"
       d="M 5.0294118,15.493024 V 251.97059 H 474.97059 V 5.0294118 H 5.0294118 Z"
       id="path1"
       inkscape:label="Gesamtausschnitt" />
    <path
       id="path7-0"
       style="fill:#ffffff;fill-opacity:0;stroke:#000000;stroke-width:0.00999998;paint-order:markers fill stroke"
       d="m 12.455,245.555 a 1.0000006,1 0 0 1 -1,1 1.0000006,1 0 0 1 -1,-1 1.0000006,1 0 0 1 1,-1 1.0000006,1 0 0 1 1,1 z"
       inkscape:label="Loch unten links" />
    <path
       id="path7-0-0-7-4-4-1-7-4"
       style="fill:#ffffff;fill-opacity:0;stroke:#000000;stroke-width:0.00999998;paint-order:markers fill stroke"
       d="m 143.005,245.555 a 1.0000006,1 0 0 1 -1,1 1.0000006,1 0 0 1 -1,-1 1.0000006,1 0 0 1 1,-1 1.0000006,1 0 0 1 1,1 z"
       inkscape:label="Loch unten links mitte" />
    <path
       id="path7-0-0-7-4-4-1-7"
       style="fill:#ffffff;fill-opacity:0;stroke:#000000;stroke-width:0.00999998;paint-order:markers fill stroke"
       d="m 339.005,245.555 a 1.0000006,1 0 0 1 -1,1 1.0000006,1 0 0 1 -1,-1 1.0000006,1 0 0 1 1,-1 1.0000006,1 0 0 1 1,1 z"
       inkscape:label="Loch unten rechts mitte" />
    <path
       id="path7-0-0-7-4"
       style="fill:#ffffff;fill-opacity:0;stroke:#000000;stroke-width:0.00999998;paint-order:markers fill stroke"
       d="m 469.505,245.555 a 1.0000006,1 0 0 1 -1,1 1.0000006,1 0 0 1 -1,-1 1.0000006,1 0 0 1 1,-1 1.0000006,1 0 0 1 1,1 z"
       inkscape:label="Loch unten rechts" />
    <path
       id="path7-0-0-7"
       style="fill:#ffffff;fill-opacity:0;stroke:#000000;stroke-width:0.00999998;paint-order:markers fill stroke"
       d="m 469.505,11.454999 a 1.0000006,1 0 0 1 -1,1 1.0000006,1 0 0 1 -1,-1 1.0000006,1 0 0 1 1,-0.999999 1.0000006,1 0 0 1 1,0.999999 z"
       inkscape:label="Loch oben rechts" />
    <path
       id="path7-0-0-7-4-4-1"
       style="fill:#ffffff;fill-opacity:0;stroke:#000000;stroke-width:0.00999998;paint-order:markers fill stroke"
       d="m 339.005,11.455 a 1.0000006,1 0 0 1 -1,1 1.0000006,1 0 0 1 -1,-1 1.0000006,1 0 0 1 1,-1 1.0000006,1 0 0 1 1,1 z"
       inkscape:label="Loch oben rechts mitte" />
    <path
       id="path7-0-0-7-4-4"
       style="fill:#ffffff;fill-opacity:0;stroke:#000000;stroke-width:0.00999998;paint-order:markers fill stroke"
       d="m 143.005,11.455 a 1.0000006,1 0 0 1 -1,1 1.0000006,1 0 0 1 -1,-1 1.0000006,1 0 0 1 1,-1 1.0000006,1 0 0 1 1,1 z"
       inkscape:label="Loch oben links mitte" />
    <path
       id="path7-0-0"
       style="fill:#ffffff;fill-opacity:0;stroke:#000000;stroke-width:0.00999998;paint-order:markers fill stroke"
       d="m 12.455,11.455 a 1.0000006,1 0 0 1 -1,1 1.0000006,1 0 0 1 -1,-1 1.0000006,1 0 0 1 1,-1 1.0000006,1 0 0 1 1,1 z"
       inkscape:label="Loch oben links" />
  </g>
  <g
     inkscape:groupmode="layer"
     id="layer4"
     inkscape:label="El1">
    <path
       id="path4"
       style="fill:#ffffff;fill-opacity:0;stroke:#000000;stroke-width:0.01;paint-order:markers fill stroke"
       d="m 37.005,82.505 a 1,1 0 0 1 -1,1 1,1 0 0 1 -1,-1 1,1 0 0 1 1,-1 1,1 0 0 1 1,1 z"
       inkscape:label="Loch oben links" />
    <path
       id="path5"
       style="fill:#ffffff;fill-opacity:0;stroke:#000000;stroke-width:0.01;paint-order:markers fill stroke"
       d="m 37.005,107.505 a 1,1 0 0 1 -1,1 1,1 0 0 1 -1,-1 1,1 0 0 1 1,-1 1,1 0 0 1 1,1 z"
       inkscape:label="Loch unten rechts" />
    <path
       id="path6"
       style="fill:#ffffff;fill-opacity:0;stroke:#000000;stroke-width:0.01;paint-order:markers fill stroke"
       d="m 75.005,82.505 a 1,1 0 0 1 -1,1 1,1 0 0 1 -1,-1 1,1 0 0 1 1,-1 1,1 0 0 1 1,1 z"
       inkscape:label="Loch oben rechts" />
    <path
       id="path7"
       style="fill:#ffffff;fill-opacity:0;stroke:#000000;stroke-width:0.01;paint-order:markers fill stroke"
       d="m 75.005,107.505 a 1,1 0 0 1 -1,1 1,1 0 0 1 -1,-1 1,1 0 0 1 1,-1 1,1 0 0 1 1,1 z"
       inkscape:label="Loch unten links" />
    <path
       style="fill:#555555;fill-opacity:0;stroke:#000000;stroke-width:0.00824291;paint-order:markers fill stroke"
       d="M 42.004121,72.471045 V 137.99588 H 67.995879 V 72.004121 H 42.004121 Z"
       id="path3"
       inkscape:label="Fensterausschnitt" />
  </g>
  <g
     inkscape:groupmode="layer"
     id="layer5"
     inkscape:label="El2">
    <path
       id="path4-0"
       style="fill:#ffffff;fill-opacity:0;stroke:#000000;stroke-width:0.01;paint-order:markers fill stroke"
       d="m 111.005,82.505 a 1,1 0 0 1 -1,1 1,1 0 0 1 -1,-1 1,1 0 0 1 1,-1 1,1 0 0 1 1,1 z"
       inkscape:label="Loch oben links2" />
    <path
       id="path5-2"
       style="fill:#ffffff;fill-opacity:0;stroke:#000000;stroke-width:0.01;paint-order:markers fill stroke"
       d="m 111.005,107.505 a 1,1 0 0 1 -1,1 1,1 0 0 1 -1,-1 1,1 0 0 1 1,-1 1,1 0 0 1 1,1 z"
       inkscape:label="Loch unten rechts2" />
    <path
       id="path6-8"
       style="fill:#ffffff;fill-opacity:0;stroke:#000000;stroke-width:0.01;paint-order:markers fill stroke"
       d="m 149.005,82.505 a 1,1 0 0 1 -1,1 1,1 0 0 1 -1,-1 1,1 0 0 1 1,-1 1,1 0 0 1 1,1 z"
       inkscape:label="Loch oben rechts2" />
    <path
       id="path7-2"
       style="fill:#ffffff;fill-opacity:0;stroke:#000000;stroke-width:0.01;paint-order:markers fill stroke"
       d="m 149.005,107.505 a 1,1 0 0 1 -1,1 1,1 0 0 1 -1,-1 1,1 0 0 1 1,-1 1,1 0 0 1 1,1 z"
       inkscape:label="Loch unten links2" />
    <path
       style="fill:#555555;fill-opacity:0;stroke:#000000;stroke-width:0.00824291;paint-order:markers fill stroke"
       d="m 116.00412,72.471045 v 65.524835 h 25.99176 V 72.004121 h -25.99176 z"
       id="path3-4"
       inkscape:label="Fensterausschnitt2" />
  </g>
  <g
     inkscape:groupmode="layer"
     id="layer6"
     inkscape:label="El3">
    <path
       id="path4-6"
       style="fill:#ffffff;fill-opacity:0;stroke:#000000;stroke-width:0.01;paint-order:markers fill stroke"
       d="m 185.005,82.505 a 1,1 0 0 1 -1,1 1,1 0 0 1 -1,-1 1,1 0 0 1 1,-1 1,1 0 0 1 1,1 z"
       inkscape:label="Loch oben links3" />
    <path
       id="path5-1"
       style="fill:#ffffff;fill-opacity:0;stroke:#000000;stroke-width:0.01;paint-order:markers fill stroke"
       d="m 185.005,107.505 a 1,1 0 0 1 -1,1 1,1 0 0 1 -1,-1 1,1 0 0 1 1,-1 1,1 0 0 1 1,1 z"
       inkscape:label="Loch unten rechts3" />
    <path
       id="path6-81"
       style="fill:#ffffff;fill-opacity:0;stroke:#000000;stroke-width:0.01;paint-order:markers fill stroke"
       d="m 223.005,82.505 a 1,1 0 0 1 -1,1 1,1 0 0 1 -1,-1 1,1 0 0 1 1,-1 1,1 0 0 1 1,1 z"
       inkscape:label="Loch oben rechts3" />
    <path
       id="path7-3"
       style="fill:#ffffff;fill-opacity:0;stroke:#000000;stroke-width:0.01;paint-order:markers fill stroke"
       d="m 223.005,107.505 a 1,1 0 0 1 -1,1 1,1 0 0 1 -1,-1 1,1 0 0 1 1,-1 1,1 0 0 1 1,1 z"
       inkscape:label="Loch unten links3" />
    <path
       style="fill:#555555;fill-opacity:0;stroke:#000000;stroke-width:0.00824291;paint-order:markers fill stroke"
       d="m 190.00412,72.471051 v 65.524829 h 25.99176 V 72.004121 h -25.99176 z"
       id="path3-9"
       inkscape:label="Fensterausschnitt3" />
  </g>
  <g
     inkscape:groupmode="layer"
     id="layer7"
     inkscape:label="El4">
    <path
       id="path4-60"
       style="fill:#ffffff;fill-opacity:0;stroke:#000000;stroke-width:0.01;paint-order:markers fill stroke"
       d="m 259.005,82.505 a 1,1 0 0 1 -1,1 1,1 0 0 1 -1,-1 1,1 0 0 1 1,-1 1,1 0 0 1 1,1 z"
       inkscape:label="Loch oben links4" />
    <path
       id="path5-26"
       style="fill:#ffffff;fill-opacity:0;stroke:#000000;stroke-width:0.01;paint-order:markers fill stroke"
       d="m 259.005,107.505 a 1,1 0 0 1 -1,1 1,1 0 0 1 -1,-1 1,1 0 0 1 1,-1 1,1 0 0 1 1,1 z"
       inkscape:label="Loch unten rechts4" />
    <path
       id="path6-4"
       style="fill:#ffffff;fill-opacity:0;stroke:#000000;stroke-width:0.01;paint-order:markers fill stroke"
       d="m 297.005,82.505 a 1,1 0 0 1 -1,1 1,1 0 0 1 -1,-1 1,1 0 0 1 1,-1 1,1 0 0 1 1,1 z"
       inkscape:label="Loch oben rechts4" />
    <path
       id="path7-30"
       style="fill:#ffffff;fill-opacity:0;stroke:#000000;stroke-width:0.01;paint-order:markers fill stroke"
       d="m 297.005,107.505 a 1,1 0 0 1 -1,1 1,1 0 0 1 -1,-1 1,1 0 0 1 1,-1 1,1 0 0 1 1,1 z"
       inkscape:label="Loch unten links4" />
    <path
       style="fill:#555555;fill-opacity:0;stroke:#000000;stroke-width:0.00824291;paint-order:markers fill stroke"
       d="m 264.00412,72.471045 v 65.524835 h 25.99176 V 72.004121 h -25.99176 z"
       id="path3-5"
       inkscape:label="Fensterausschnitt4" />
  </g>
  <g
     inkscape:groupmode="layer"
     id="layer8"
     inkscape:label="El5">
    <path
       id="path4-0-2"
       style="fill:#ffffff;fill-opacity:0;stroke:#000000;stroke-width:0.01;paint-order:markers fill stroke"
       d="m 333.005,82.505 a 1,1 0 0 1 -1,1 1,1 0 0 1 -1,-1 1,1 0 0 1 1,-1 1,1 0 0 1 1,1 z"
       inkscape:label="Loch oben links5" />
    <path
       id="path5-2-8"
       style="fill:#ffffff;fill-opacity:0;stroke:#000000;stroke-width:0.01;paint-order:markers fill stroke"
       d="m 333.005,107.505 a 1,1 0 0 1 -1,1 1,1 0 0 1 -1,-1 1,1 0 0 1 1,-1 1,1 0 0 1 1,1 z"
       inkscape:label="Loch unten rechts5" />
    <path
       id="path6-8-4"
       style="fill:#ffffff;fill-opacity:0;stroke:#000000;stroke-width:0.01;paint-order:markers fill stroke"
       d="m 371.005,82.505 a 1,1 0 0 1 -1,1 1,1 0 0 1 -1,-1 1,1 0 0 1 1,-1 1,1 0 0 1 1,1 z"
       inkscape:label="Loch oben rechts5" />
    <path
       id="path7-2-9"
       style="fill:#ffffff;fill-opacity:0;stroke:#000000;stroke-width:0.01;paint-order:markers fill stroke"
       d="m 371.005,107.505 a 1,1 0 0 1 -1,1 1,1 0 0 1 -1,-1 1,1 0 0 1 1,-1 1,1 0 0 1 1,1 z"
       inkscape:label="Loch unten links5" />
    <path
       style="fill:#555555;fill-opacity:0;stroke:#000000;stroke-width:0.00824291;paint-order:markers fill stroke"
       d="m 338.00412,72.471045 v 65.524835 h 25.99176 V 72.004121 h -25.99176 z"
       id="path3-4-2"
       inkscape:label="Fensterausschnitt5" />
  </g>
  <g
     inkscape:groupmode="layer"
     id="layer9"
     inkscape:label="El6">
    <path
       id="path4-6-5"
       style="fill:#ffffff;fill-opacity:0;stroke:#000000;stroke-width:0.01;paint-order:markers fill stroke"
       d="m 407.005,82.505 a 1,1 0 0 1 -1,1 1,1 0 0 1 -1,-1 1,1 0 0 1 1,-1 1,1 0 0 1 1,1 z"
       inkscape:label="Loch oben links6" />
    <path
       id="path5-1-6"
       style="fill:#ffffff;fill-opacity:0;stroke:#000000;stroke-width:0.01;paint-order:markers fill stroke"
       d="m 407.005,107.505 a 1,1 0 0 1 -1,1 1,1 0 0 1 -1,-1 1,1 0 0 1 1,-1 1,1 0 0 1 1,1 z"
       inkscape:label="Loch unten rechts6" />
    <path
       id="path6-81-0"
       style="fill:#ffffff;fill-opacity:0;stroke:#000000;stroke-width:0.01;paint-order:markers fill stroke"
       d="m 445.005,82.505 a 1,1 0 0 1 -1,1 1,1 0 0 1 -1,-1 1,1 0 0 1 1,-1 1,1 0 0 1 1,1 z"
       inkscape:label="Loch oben rechts6" />
    <path
       id="path7-3-0"
       style="fill:#ffffff;fill-opacity:0;stroke:#000000;stroke-width:0.01;paint-order:markers fill stroke"
       d="m 445.005,107.505 a 1,1 0 0 1 -1,1 1,1 0 0 1 -1,-1 1,1 0 0 1 1,-1 1,1 0 0 1 1,1 z"
       inkscape:label="Loch unten link6" />
    <path
       style="fill:#555555;fill-opacity:0;stroke:#000000;stroke-width:0.00824291;paint-order:markers fill stroke"
       d="m 412.00412,72.471051 v 65.524829 h 25.99176 V 72.004121 h -25.99176 z"
       id="path3-9-0"
       inkscape:label="Fensterausschnitt6" />
  </g>
  <g
     inkscape:groupmode="layer"
     id="layer3"
     inkscape:label="nicht cutten"
     style="display:inline">
    <path
       style="fill:#555555;fill-opacity:0;stroke:#000000;stroke-width:0.0225464;paint-order:markers fill stroke"
       d="M 5.0112733,5.68394 V 151.98873 H 78.988727 V 5.0112733 H 5.0112733 Z"
       id="path2"
       inkscape:label="außenausschnitt" />
    <path
       style="fill:#555555;fill-opacity:0;stroke:#000000;stroke-width:0.0225464;paint-order:markers fill stroke"
       d="M 153.01127,5.6839432 V 151.98873 h 73.97746 V 5.0112732 h -73.97746 z"
       id="path2-9"
       inkscape:label="außenausschnitt3" />
    <path
       style="fill:#555555;fill-opacity:0;stroke:#000000;stroke-width:0.0225464;paint-order:markers fill stroke"
       d="M 79.011273,5.6839402 V 151.98873 H 152.98873 V 5.0112732 H 79.011273 Z"
       id="path2-8"
       inkscape:label="außenausschnitt2" />
    <path
       style="fill:#555555;fill-opacity:0;stroke:#000000;stroke-width:0.0225464;paint-order:markers fill stroke"
       d="m 227.01127,5.68394 v 146.30479 h 73.97745 V 5.0112733 h -73.97745 z"
       id="path2-4"
       inkscape:label="außenausschnitt4" />
    <path
       style="fill:#555555;fill-opacity:0;stroke:#000000;stroke-width:0.0225464;paint-order:markers fill stroke"
       d="M 375.01127,5.6839432 V 151.98873 h 73.97746 V 5.0112732 h -73.97746 z"
       id="path2-9-6"
       inkscape:label="außenausschnitt6" />
    <path
       style="fill:#555555;fill-opacity:0;stroke:#000000;stroke-width:0.0225464;paint-order:markers fill stroke"
       d="M 301.01127,5.6839402 V 151.98873 h 73.97746 V 5.0112732 h -73.97746 z"
       id="path2-8-6"
       inkscape:label="außenausschnitt5" />
    <path
       style="fill:#ffffff;fill-opacity:0;stroke:#000000;stroke-width:0.0026654;paint-order:markers fill stroke"
       d="M 8.0013327,8.1967897 V 14.998668 H 14.998667 V 8.0013327 H 8.0013327 Z"
       id="path12" />
    <path
       style="display:inline;fill:#ffffff;fill-opacity:0;stroke:#000000;stroke-width:0.0026654;paint-order:markers fill stroke"
       d="m 153.50133,8.1967897 v 6.8018783 h 6.99734 V 8.0013327 h -6.99734 z"
       id="path12-4"
       inkscape:label="mitte" />
    <path
       style="display:inline;fill:#ffffff;fill-opacity:0;stroke:#000000;stroke-width:0.0026654;paint-order:markers fill stroke"
       d="m 8.0013327,142.19679 v 6.80188 h 6.9973343 v -6.99734 H 8.0013327 Z"
       id="path12-0" />
    <path
       style="fill:#ffffff;fill-opacity:0;stroke:#000000;stroke-width:0.00442576;paint-order:markers fill stroke"
       d="m 457.99777,8.7607691 v 6.2370179 h -6.99556 V 8.0022129 h 6.99556 z"
       id="path13" />
    <path
       style="display:inline;fill:#ffffff;fill-opacity:0;stroke:#000000;stroke-width:0.00442576;paint-order:markers fill stroke"
       d="m 457.99777,142.76077 v 6.23702 h -6.99556 v -6.99558 h 6.99556 z"
       id="path13-6" />
    <path
       style="fill:#ffffff;fill-opacity:0;stroke:#000000;stroke-width:0.00984889;paint-order:markers fill stroke"
       d="m 475,5.0049245 h -6.49508 v 6.4901515 h 6.42788 V 5.0049245 Z"
       id="path8" />
  </g>
</svg>
