<?xml version="1.0" encoding="UTF-8" standalone="no"?>
<!-- Created with Inkscape (http://www.inkscape.org/) -->

<svg
   width="600mm"
   height="400mm"
   viewBox="0 0 600 400"
   version="1.1"
   id="svg1"
   inkscape:version="1.3.2 (091e20e, 2023-11-25, custom)"
   sodipodi:docname="Frontplatte.svg"
   inkscape:export-filename="..\Drucken\Seriendruck\Frontplatte_groß_v2.svg"
   inkscape:export-xdpi="96"
   inkscape:export-ydpi="96"
   xmlns:inkscape="http://www.inkscape.org/namespaces/inkscape"
   xmlns:sodipodi="http://sodipodi.sourceforge.net/DTD/sodipodi-0.dtd"
   xmlns="http://www.w3.org/2000/svg"
   xmlns:svg="http://www.w3.org/2000/svg">
  <sodipodi:namedview
     id="namedview1"
     pagecolor="#ffffff"
     bordercolor="#000000"
     borderopacity="0.25"
     inkscape:showpageshadow="2"
     inkscape:pageopacity="0.0"
     inkscape:pagecheckerboard="0"
     inkscape:deskcolor="#d1d1d1"
     inkscape:document-units="mm"
     inkscape:zoom="0.39952824"
     inkscape:cx="1227.698"
     inkscape:cy="521.86549"
     inkscape:window-width="1920"
     inkscape:window-height="991"
     inkscape:window-x="-9"
     inkscape:window-y="-9"
     inkscape:window-maximized="1"
     inkscape:current-layer="layer1" />
  <defs
     id="defs1" />
  <g
     inkscape:groupmode="layer"
     id="layer3"
     inkscape:label="nicht cutten"
     style="display:inline">
    <path
       style="fill:#555555;fill-opacity:0;stroke:#000000;stroke-width:0.0225464;paint-order:markers fill stroke"
       d="M 153.01127,5.6839432 V 151.98873 h 73.97746 V 5.0112732 h -73.97746 z"
       id="path2-9"
       inkscape:label="außenausschnitt3" />
    <path
       style="fill:#555555;fill-opacity:0;stroke:#000000;stroke-width:0.0225464;paint-order:markers fill stroke"
       d="M 79.011273,5.6839402 V 151.98873 H 152.98873 V 5.0112732 H 79.011273 Z"
       id="path2-8"
       inkscape:label="außenausschnitt2" />
    <path
       style="fill:#555555;fill-opacity:0;stroke:#000000;stroke-width:0.0225464;paint-order:markers fill stroke"
       d="m 227.01127,5.68394 v 146.30479 h 73.97745 V 5.0112733 h -73.97745 z"
       id="path2-4"
       inkscape:label="außenausschnitt4" />
    <path
       style="fill:#555555;fill-opacity:0;stroke:#000000;stroke-width:0.0225464;paint-order:markers fill stroke"
       d="M 375.01127,5.6839432 V 151.98873 h 73.97746 V 5.0112732 h -73.97746 z"
       id="path2-9-6"
       inkscape:label="außenausschnitt6" />
    <path
       style="fill:#555555;fill-opacity:0;stroke:#000000;stroke-width:0.0225464;paint-order:markers fill stroke"
       d="M 301.01127,5.6839402 V 151.98873 h 73.97746 V 5.0112732 h -73.97746 z"
       id="path2-8-6"
       inkscape:label="außenausschnitt5" />
    <path
       style="fill:#ffffff;fill-opacity:0;stroke:#000000;stroke-width:0.00247501;paint-order:markers fill stroke"
       d="M 5.0012375,5.1827333 V 11.498762 H 11.498763 V 5.0012375 H 5.0012375 Z"
       id="path12" />
    <path
       style="display:inline;fill:#ffffff;fill-opacity:0;stroke:#000000;stroke-width:0.0026654;paint-order:markers fill stroke"
       d="m 153.50133,8.1967897 v 6.8018783 h 6.99734 V 8.0013327 h -6.99734 z"
       id="path12-4"
       inkscape:label="mitte" />
    <path
       style="display:inline;fill:#ffffff;fill-opacity:0;stroke:#000000;stroke-width:0.00247501;paint-order:markers fill stroke"
       d="m 5.0012375,147.68274 v 6.31603 h 6.4975255 v -6.49753 H 5.0012375 Z"
       id="path12-0" />
    <path
       style="fill:#ffffff;fill-opacity:0;stroke:#000000;stroke-width:0.00410964;paint-order:markers fill stroke"
       d="m 474.99794,5.7064285 v 5.7915165 h -6.49589 V 5.0020548 h 6.49589 z"
       id="path13" />
    <path
       style="display:inline;fill:#ffffff;fill-opacity:0;stroke:#000000;stroke-width:0.00410964;paint-order:markers fill stroke"
       d="m 474.99794,148.20643 v 5.79151 h -6.49589 v -6.49589 h 6.49589 z"
       id="path13-6" />
    <path
       style="display:inline;fill:#ffffff;fill-opacity:0;stroke:#000000;stroke-width:0.00410964;paint-order:markers fill stroke"
       d="m 474.99794,154.70643 v 5.79151 h -6.49589 v -6.49589 h 6.49589 z"
       id="path13-6-6" />
  </g>
  <g
     inkscape:groupmode="layer"
     id="layer11"
     inkscape:label="oben">
    <g
       inkscape:label="Rahmen"
       inkscape:groupmode="layer"
       id="layer1">
      <path
         style="fill:#ffffff;fill-opacity:0;stroke:#000000;stroke-width:0.0646122;paint-order:markers fill stroke"
         d="M 5.032306,17.656691 V 302.96769 H 474.9677 V 5.0323061 H 5.032306 Z"
         id="path1"
         inkscape:label="Gesamtausschnitt" />
      <path
         id="path7-0"
         style="fill:#ffffff;fill-opacity:0;stroke:#000000;stroke-width:0.00999998;paint-order:markers fill stroke"
         d="m 12.455,147.555 a 1.0000006,1 0 0 1 -1,1 1.0000006,1 0 0 1 -1,-1 1.0000006,1 0 0 1 1,-1 1.0000006,1 0 0 1 1,1 z"
         inkscape:label="Loch unten links" />
      <path
         id="path7-0-0-7-4-4-1-7-4"
         style="fill:#ffffff;fill-opacity:0;stroke:#000000;stroke-width:0.00999998;paint-order:markers fill stroke"
         d="m 143.005,147.555 a 1.0000006,1 0 0 1 -1,1 1.0000006,1 0 0 1 -1,-1 1.0000006,1 0 0 1 1,-1 1.0000006,1 0 0 1 1,1 z"
         inkscape:label="Loch unten links mitte" />
      <path
         id="path7-0-0-7-4-4-1-7"
         style="fill:#ffffff;fill-opacity:0;stroke:#000000;stroke-width:0.00999998;paint-order:markers fill stroke"
         d="m 339.005,147.555 a 1.0000006,1 0 0 1 -1,1 1.0000006,1 0 0 1 -1,-1 1.0000006,1 0 0 1 1,-1 1.0000006,1 0 0 1 1,1 z"
         inkscape:label="Loch unten rechts mitte" />
      <path
         id="path7-0-0-7-4"
         style="fill:#ffffff;fill-opacity:0;stroke:#000000;stroke-width:0.00999998;paint-order:markers fill stroke"
         d="m 469.505,147.555 a 1.0000006,1 0 0 1 -1,1 1.0000006,1 0 0 1 -1,-1 1.0000006,1 0 0 1 1,-1 1.0000006,1 0 0 1 1,1 z"
         inkscape:label="Loch unten rechts" />
      <path
         id="path7-0-0-7"
         style="fill:#ffffff;fill-opacity:0;stroke:#000000;stroke-width:0.00999998;paint-order:markers fill stroke"
         d="m 469.505,11.454999 a 1.0000006,1 0 0 1 -1,1 1.0000006,1 0 0 1 -1,-1 1.0000006,1 0 0 1 1,-0.999999 1.0000006,1 0 0 1 1,0.999999 z"
         inkscape:label="Loch oben rechts" />
      <path
         id="path7-0-0-7-4-4-1"
         style="fill:#ffffff;fill-opacity:0;stroke:#000000;stroke-width:0.00999998;paint-order:markers fill stroke"
         d="m 339.005,11.455 a 1.0000006,1 0 0 1 -1,1 1.0000006,1 0 0 1 -1,-1 1.0000006,1 0 0 1 1,-1 1.0000006,1 0 0 1 1,1 z"
         inkscape:label="Loch oben rechts mitte" />
      <path
         id="path7-0-0-7-4-4"
         style="fill:#ffffff;fill-opacity:0;stroke:#000000;stroke-width:0.00999998;paint-order:markers fill stroke"
         d="m 143.005,11.455 a 1.0000006,1 0 0 1 -1,1 1.0000006,1 0 0 1 -1,-1 1.0000006,1 0 0 1 1,-1 1.0000006,1 0 0 1 1,1 z"
         inkscape:label="Loch oben links mitte" />
      <path
         id="path7-0-0"
         style="fill:#ffffff;fill-opacity:0;stroke:#000000;stroke-width:0.00999998;paint-order:markers fill stroke"
         d="m 12.455,11.455 a 1.0000006,1 0 0 1 -1,1 1.0000006,1 0 0 1 -1,-1 1.0000006,1 0 0 1 1,-1 1.0000006,1 0 0 1 1,1 z"
         inkscape:label="Loch oben links" />
    </g>
    <g
       inkscape:groupmode="layer"
       id="layer4"
       inkscape:label="El1">
      <path
         id="path4"
         style="fill:#ffffff;fill-opacity:0;stroke:#000000;stroke-width:0.01;paint-order:markers fill stroke"
         d="m 37.005,80.505 a 1,1 0 0 1 -1,1 1,1 0 0 1 -1,-1 1,1 0 0 1 1,-1 1,1 0 0 1 1,1 z"
         inkscape:label="Loch oben links" />
      <path
         id="path5"
         style="fill:#ffffff;fill-opacity:0;stroke:#000000;stroke-width:0.01;paint-order:markers fill stroke"
         d="m 37.005,105.505 a 1,1 0 0 1 -1,1 1,1 0 0 1 -1,-1 1,1 0 0 1 1,-1 1,1 0 0 1 1,1 z"
         inkscape:label="Loch unten rechts" />
      <path
         id="path6"
         style="fill:#ffffff;fill-opacity:0;stroke:#000000;stroke-width:0.01;paint-order:markers fill stroke"
         d="m 75.005,80.505 a 1,1 0 0 1 -1,1 1,1 0 0 1 -1,-1 1,1 0 0 1 1,-1 1,1 0 0 1 1,1 z"
         inkscape:label="Loch oben rechts" />
      <path
         id="path7"
         style="fill:#ffffff;fill-opacity:0;stroke:#000000;stroke-width:0.01;paint-order:markers fill stroke"
         d="m 75.005,105.505 a 1,1 0 0 1 -1,1 1,1 0 0 1 -1,-1 1,1 0 0 1 1,-1 1,1 0 0 1 1,1 z"
         inkscape:label="Loch unten links" />
      <path
         style="fill:#555555;fill-opacity:0;stroke:#000000;stroke-width:0.00824291;paint-order:markers fill stroke"
         d="M 42.004121,70.471045 V 135.99588 H 67.995879 V 70.004121 H 42.004121 Z"
         id="path3"
         inkscape:label="Fensterausschnitt" />
    </g>
    <g
       inkscape:groupmode="layer"
       id="layer5"
       inkscape:label="El2">
      <path
         id="path4-0"
         style="fill:#ffffff;fill-opacity:0;stroke:#000000;stroke-width:0.01;paint-order:markers fill stroke"
         d="m 111.005,80.505 a 1,1 0 0 1 -1,1 1,1 0 0 1 -1,-1 1,1 0 0 1 1,-1 1,1 0 0 1 1,1 z"
         inkscape:label="Loch oben links2" />
      <path
         id="path5-2"
         style="fill:#ffffff;fill-opacity:0;stroke:#000000;stroke-width:0.01;paint-order:markers fill stroke"
         d="m 111.005,105.505 a 1,1 0 0 1 -1,1 1,1 0 0 1 -1,-1 1,1 0 0 1 1,-1 1,1 0 0 1 1,1 z"
         inkscape:label="Loch unten rechts2" />
      <path
         id="path6-8"
         style="fill:#ffffff;fill-opacity:0;stroke:#000000;stroke-width:0.01;paint-order:markers fill stroke"
         d="m 149.005,80.505 a 1,1 0 0 1 -1,1 1,1 0 0 1 -1,-1 1,1 0 0 1 1,-1 1,1 0 0 1 1,1 z"
         inkscape:label="Loch oben rechts2" />
      <path
         id="path7-2"
         style="fill:#ffffff;fill-opacity:0;stroke:#000000;stroke-width:0.01;paint-order:markers fill stroke"
         d="m 149.005,105.505 a 1,1 0 0 1 -1,1 1,1 0 0 1 -1,-1 1,1 0 0 1 1,-1 1,1 0 0 1 1,1 z"
         inkscape:label="Loch unten links2" />
      <path
         style="fill:#555555;fill-opacity:0;stroke:#000000;stroke-width:0.00824291;paint-order:markers fill stroke"
         d="m 116.00412,70.471045 v 65.524835 h 25.99176 V 70.004121 h -25.99176 z"
         id="path3-4"
         inkscape:label="Fensterausschnitt2" />
    </g>
    <g
       inkscape:groupmode="layer"
       id="layer6"
       inkscape:label="El3">
      <path
         id="path4-6"
         style="fill:#ffffff;fill-opacity:0;stroke:#000000;stroke-width:0.01;paint-order:markers fill stroke"
         d="m 185.005,80.505003 a 1,1 0 0 1 -1,1 1,1 0 0 1 -1,-1 1,1 0 0 1 1,-1 1,1 0 0 1 1,1 z"
         inkscape:label="Loch oben links3" />
      <path
         id="path5-1"
         style="fill:#ffffff;fill-opacity:0;stroke:#000000;stroke-width:0.01;paint-order:markers fill stroke"
         d="m 185.005,105.505 a 1,1 0 0 1 -1,1 1,1 0 0 1 -1,-1 1,1 0 0 1 1,-1 1,1 0 0 1 1,1 z"
         inkscape:label="Loch unten rechts3" />
      <path
         id="path6-81"
         style="fill:#ffffff;fill-opacity:0;stroke:#000000;stroke-width:0.01;paint-order:markers fill stroke"
         d="m 223.005,80.505003 a 1,1 0 0 1 -1,1 1,1 0 0 1 -1,-1 1,1 0 0 1 1,-1 1,1 0 0 1 1,1 z"
         inkscape:label="Loch oben rechts3" />
      <path
         id="path7-3"
         style="fill:#ffffff;fill-opacity:0;stroke:#000000;stroke-width:0.01;paint-order:markers fill stroke"
         d="m 223.005,105.505 a 1,1 0 0 1 -1,1 1,1 0 0 1 -1,-1 1,1 0 0 1 1,-1 1,1 0 0 1 1,1 z"
         inkscape:label="Loch unten links3" />
      <path
         style="fill:#555555;fill-opacity:0;stroke:#000000;stroke-width:0.00824291;paint-order:markers fill stroke"
         d="m 190.00412,70.471053 v 65.524827 h 25.99176 V 70.004123 h -25.99176 z"
         id="path3-9"
         inkscape:label="Fensterausschnitt3" />
    </g>
    <g
       inkscape:groupmode="layer"
       id="layer7"
       inkscape:label="El4">
      <path
         id="path4-60"
         style="fill:#ffffff;fill-opacity:0;stroke:#000000;stroke-width:0.01;paint-order:markers fill stroke"
         d="m 259.005,80.505 a 1,1 0 0 1 -1,1 1,1 0 0 1 -1,-1 1,1 0 0 1 1,-1 1,1 0 0 1 1,1 z"
         inkscape:label="Loch oben links4" />
      <path
         id="path5-26"
         style="fill:#ffffff;fill-opacity:0;stroke:#000000;stroke-width:0.01;paint-order:markers fill stroke"
         d="m 259.005,105.505 a 1,1 0 0 1 -1,1 1,1 0 0 1 -1,-1 1,1 0 0 1 1,-1 1,1 0 0 1 1,1 z"
         inkscape:label="Loch unten rechts4" />
      <path
         id="path6-4"
         style="fill:#ffffff;fill-opacity:0;stroke:#000000;stroke-width:0.01;paint-order:markers fill stroke"
         d="m 297.005,80.505 a 1,1 0 0 1 -1,1 1,1 0 0 1 -1,-1 1,1 0 0 1 1,-1 1,1 0 0 1 1,1 z"
         inkscape:label="Loch oben rechts4" />
      <path
         id="path7-30"
         style="fill:#ffffff;fill-opacity:0;stroke:#000000;stroke-width:0.01;paint-order:markers fill stroke"
         d="m 297.005,105.505 a 1,1 0 0 1 -1,1 1,1 0 0 1 -1,-1 1,1 0 0 1 1,-1 1,1 0 0 1 1,1 z"
         inkscape:label="Loch unten links4" />
      <path
         style="fill:#555555;fill-opacity:0;stroke:#000000;stroke-width:0.00824291;paint-order:markers fill stroke"
         d="m 264.00412,70.471045 v 65.524835 h 25.99176 V 70.004121 h -25.99176 z"
         id="path3-5"
         inkscape:label="Fensterausschnitt4" />
    </g>
    <g
       inkscape:groupmode="layer"
       id="layer8"
       inkscape:label="El5">
      <path
         id="path4-0-2"
         style="fill:#ffffff;fill-opacity:0;stroke:#000000;stroke-width:0.01;paint-order:markers fill stroke"
         d="m 333.005,80.505 a 1,1 0 0 1 -1,1 1,1 0 0 1 -1,-1 1,1 0 0 1 1,-1 1,1 0 0 1 1,1 z"
         inkscape:label="Loch oben links5" />
      <path
         id="path5-2-8"
         style="fill:#ffffff;fill-opacity:0;stroke:#000000;stroke-width:0.01;paint-order:markers fill stroke"
         d="m 333.005,105.505 a 1,1 0 0 1 -1,1 1,1 0 0 1 -1,-1 1,1 0 0 1 1,-1 1,1 0 0 1 1,1 z"
         inkscape:label="Loch unten rechts5" />
      <path
         id="path6-8-4"
         style="fill:#ffffff;fill-opacity:0;stroke:#000000;stroke-width:0.01;paint-order:markers fill stroke"
         d="m 371.005,80.505 a 1,1 0 0 1 -1,1 1,1 0 0 1 -1,-1 1,1 0 0 1 1,-1 1,1 0 0 1 1,1 z"
         inkscape:label="Loch oben rechts5" />
      <path
         id="path7-2-9"
         style="fill:#ffffff;fill-opacity:0;stroke:#000000;stroke-width:0.01;paint-order:markers fill stroke"
         d="m 371.005,105.505 a 1,1 0 0 1 -1,1 1,1 0 0 1 -1,-1 1,1 0 0 1 1,-1 1,1 0 0 1 1,1 z"
         inkscape:label="Loch unten links5" />
      <path
         style="fill:#555555;fill-opacity:0;stroke:#000000;stroke-width:0.00824291;paint-order:markers fill stroke"
         d="m 338.00412,70.471045 v 65.524835 h 25.99176 V 70.004121 h -25.99176 z"
         id="path3-4-2"
         inkscape:label="Fensterausschnitt5" />
    </g>
    <g
       inkscape:groupmode="layer"
       id="layer9"
       inkscape:label="El6">
      <path
         id="path4-6-5"
         style="fill:#ffffff;fill-opacity:0;stroke:#000000;stroke-width:0.01;paint-order:markers fill stroke"
         d="m 407.005,80.505003 a 1,1 0 0 1 -1,1 1,1 0 0 1 -1,-1 1,1 0 0 1 1,-1 1,1 0 0 1 1,1 z"
         inkscape:label="Loch oben links6" />
      <path
         id="path5-1-6"
         style="fill:#ffffff;fill-opacity:0;stroke:#000000;stroke-width:0.01;paint-order:markers fill stroke"
         d="m 407.005,105.505 a 1,1 0 0 1 -1,1 1,1 0 0 1 -1,-1 1,1 0 0 1 1,-1 1,1 0 0 1 1,1 z"
         inkscape:label="Loch unten rechts6" />
      <path
         id="path6-81-0"
         style="fill:#ffffff;fill-opacity:0;stroke:#000000;stroke-width:0.01;paint-order:markers fill stroke"
         d="m 445.005,80.505003 a 1,1 0 0 1 -1,1 1,1 0 0 1 -1,-1 1,1 0 0 1 1,-1 1,1 0 0 1 1,1 z"
         inkscape:label="Loch oben rechts6" />
      <path
         id="path7-3-0"
         style="fill:#ffffff;fill-opacity:0;stroke:#000000;stroke-width:0.01;paint-order:markers fill stroke"
         d="m 445.005,105.505 a 1,1 0 0 1 -1,1 1,1 0 0 1 -1,-1 1,1 0 0 1 1,-1 1,1 0 0 1 1,1 z"
         inkscape:label="Loch unten link6" />
      <path
         style="fill:#555555;fill-opacity:0;stroke:#000000;stroke-width:0.00824291;paint-order:markers fill stroke"
         d="m 412.00412,70.471053 v 65.524827 h 25.99176 V 70.004123 h -25.99176 z"
         id="path3-9-0"
         inkscape:label="Fensterausschnitt6" />
    </g>
  </g>
  <g
     inkscape:groupmode="layer"
     id="layer10"
     inkscape:label="unten">
    <g
       inkscape:label="Rahmen"
       inkscape:groupmode="layer"
       id="layer1-9"
       transform="translate(124.91042,429.71043)"
       style="display:inline">
      <path
         id="path7-0-1"
         style="fill:#ffffff;fill-opacity:0;stroke:#000000;stroke-width:0.00999998;paint-order:markers fill stroke"
         d="m -112.45542,-133.15542 a 1.0000006,1 0 0 1 -1,1 1.0000006,1 0 0 1 -1,-1 1.0000006,1 0 0 1 1,-1 1.0000006,1 0 0 1 1,1 z"
         inkscape:label="Loch unten links" />
      <path
         id="path7-0-0-7-4-4-1-7-4-2"
         style="fill:#ffffff;fill-opacity:0;stroke:#000000;stroke-width:0.00999998;paint-order:markers fill stroke"
         d="m 18.09458,-133.15542 a 1.0000006,1 0 0 1 -1,1 1.0000006,1 0 0 1 -1,-1 1.0000006,1 0 0 1 1,-1 1.0000006,1 0 0 1 1,1 z"
         inkscape:label="Loch unten links mitte" />
      <path
         id="path7-0-0-7-4-4-1-7-6"
         style="fill:#ffffff;fill-opacity:0;stroke:#000000;stroke-width:0.00999998;paint-order:markers fill stroke"
         d="m 214.09458,-133.15542 a 1.0000006,1 0 0 1 -1,1 1.0000006,1 0 0 1 -1,-1 1.0000006,1 0 0 1 1,-1 1.0000006,1 0 0 1 1,1 z"
         inkscape:label="Loch unten rechts mitte" />
      <path
         id="path7-0-0-7-4-7"
         style="fill:#ffffff;fill-opacity:0;stroke:#000000;stroke-width:0.00999998;paint-order:markers fill stroke"
         d="m 344.59458,-133.15542 a 1.0000006,1 0 0 1 -1,1 1.0000006,1 0 0 1 -1,-1 1.0000006,1 0 0 1 1,-1 1.0000006,1 0 0 1 1,1 z"
         inkscape:label="Loch unten rechts" />
      <path
         id="path7-0-0-7-1"
         style="fill:#ffffff;fill-opacity:0;stroke:#000000;stroke-width:0.00999998;paint-order:markers fill stroke"
         d="m 344.59458,-269.25542 a 1.0000006,1 0 0 1 -1,1 1.0000006,1 0 0 1 -1,-1 1.0000006,1 0 0 1 1,-1 1.0000006,1 0 0 1 1,1 z"
         inkscape:label="Loch oben rechts" />
      <path
         id="path7-0-0-7-4-4-1-5"
         style="fill:#ffffff;fill-opacity:0;stroke:#000000;stroke-width:0.00999998;paint-order:markers fill stroke"
         d="m 214.09458,-269.25542 a 1.0000006,1 0 0 1 -1,1 1.0000006,1 0 0 1 -1,-1 1.0000006,1 0 0 1 1,-1 1.0000006,1 0 0 1 1,1 z"
         inkscape:label="Loch oben rechts mitte" />
      <path
         id="path7-0-0-7-4-4-9"
         style="fill:#ffffff;fill-opacity:0;stroke:#000000;stroke-width:0.00999998;paint-order:markers fill stroke"
         d="m 18.09458,-269.25542 a 1.0000006,1 0 0 1 -1,1 1.0000006,1 0 0 1 -1,-1 1.0000006,1 0 0 1 1,-1 1.0000006,1 0 0 1 1,1 z"
         inkscape:label="Loch oben links mitte" />
      <path
         id="path7-0-0-5"
         style="fill:#ffffff;fill-opacity:0;stroke:#000000;stroke-width:0.00999998;paint-order:markers fill stroke"
         d="m -112.45542,-269.25542 a 1.0000006,1 0 0 1 -1,1 1.0000006,1 0 0 1 -1,-1 1.0000006,1 0 0 1 1,-1 1.0000006,1 0 0 1 1,1 z"
         inkscape:label="Loch oben links" />
    </g>
    <g
       inkscape:groupmode="layer"
       id="layer4-5"
       inkscape:label="El1"
       transform="translate(124.91042,429.71043)"
       style="display:inline">
      <path
         id="path4-69"
         style="fill:#ffffff;fill-opacity:0;stroke:#000000;stroke-width:0.01;paint-order:markers fill stroke"
         d="m -87.90542,-200.20542 a 1,1 0 0 1 -1,1 1,1 0 0 1 -1,-1 1,1 0 0 1 1,-1 1,1 0 0 1 1,1 z"
         inkscape:label="Loch oben links" />
      <path
         id="path5-3"
         style="fill:#ffffff;fill-opacity:0;stroke:#000000;stroke-width:0.01;paint-order:markers fill stroke"
         d="m -87.90542,-175.20542 a 1,1 0 0 1 -1,1 1,1 0 0 1 -1,-1 1,1 0 0 1 1,-1 1,1 0 0 1 1,1 z"
         inkscape:label="Loch unten rechts" />
      <path
         id="path6-9"
         style="fill:#ffffff;fill-opacity:0;stroke:#000000;stroke-width:0.01;paint-order:markers fill stroke"
         d="m -49.90542,-200.20542 a 1,1 0 0 1 -1,1 1,1 0 0 1 -1,-1 1,1 0 0 1 1,-1 1,1 0 0 1 1,1 z"
         inkscape:label="Loch oben rechts" />
      <path
         id="path7-26"
         style="fill:#ffffff;fill-opacity:0;stroke:#000000;stroke-width:0.01;paint-order:markers fill stroke"
         d="m -49.90542,-175.20542 a 1,1 0 0 1 -1,1 1,1 0 0 1 -1,-1 1,1 0 0 1 1,-1 1,1 0 0 1 1,1 z"
         inkscape:label="Loch unten links" />
      <path
         style="fill:#555555;fill-opacity:0;stroke:#000000;stroke-width:0.00824291;paint-order:markers fill stroke"
         d="m -82.906299,-210.23937 v 65.52483 h 25.991758 v -65.99176 h -25.991758 z"
         id="path3-6"
         inkscape:label="Fensterausschnitt" />
    </g>
    <g
       inkscape:groupmode="layer"
       id="layer5-4"
       inkscape:label="El2"
       transform="translate(124.91042,429.71043)"
       style="display:inline">
      <path
         id="path4-0-5"
         style="fill:#ffffff;fill-opacity:0;stroke:#000000;stroke-width:0.01;paint-order:markers fill stroke"
         d="m -13.90542,-200.20542 a 1,1 0 0 1 -1,1 1,1 0 0 1 -1,-1 1,1 0 0 1 1,-1 1,1 0 0 1 1,1 z"
         inkscape:label="Loch oben links2" />
      <path
         id="path5-2-4"
         style="fill:#ffffff;fill-opacity:0;stroke:#000000;stroke-width:0.01;paint-order:markers fill stroke"
         d="m -13.90542,-175.20542 a 1,1 0 0 1 -1,1 1,1 0 0 1 -1,-1 1,1 0 0 1 1,-1 1,1 0 0 1 1,1 z"
         inkscape:label="Loch unten rechts2" />
      <path
         id="path6-8-3"
         style="fill:#ffffff;fill-opacity:0;stroke:#000000;stroke-width:0.01;paint-order:markers fill stroke"
         d="m 24.09458,-200.20542 a 1,1 0 0 1 -1,1 1,1 0 0 1 -1,-1 1,1 0 0 1 1,-1 1,1 0 0 1 1,1 z"
         inkscape:label="Loch oben rechts2" />
      <path
         id="path7-2-2"
         style="fill:#ffffff;fill-opacity:0;stroke:#000000;stroke-width:0.01;paint-order:markers fill stroke"
         d="m 24.09458,-175.20542 a 1,1 0 0 1 -1,1 1,1 0 0 1 -1,-1 1,1 0 0 1 1,-1 1,1 0 0 1 1,1 z"
         inkscape:label="Loch unten links2" />
      <path
         style="fill:#555555;fill-opacity:0;stroke:#000000;stroke-width:0.00824291;paint-order:markers fill stroke"
         d="m -8.9062999,-210.23937 v 65.52483 H 17.08546 V -210.7063 H -8.9062999 Z"
         id="path3-4-9"
         inkscape:label="Fensterausschnitt2" />
    </g>
    <g
       inkscape:groupmode="layer"
       id="layer6-4"
       inkscape:label="El3"
       transform="translate(124.91042,429.71043)"
       style="display:inline">
      <path
         id="path4-6-6"
         style="fill:#ffffff;fill-opacity:0;stroke:#000000;stroke-width:0.01;paint-order:markers fill stroke"
         d="m 60.09458,-200.20542 a 1,1 0 0 1 -1,1 1,1 0 0 1 -1,-1 1,1 0 0 1 1,-1 1,1 0 0 1 1,1 z"
         inkscape:label="Loch oben links3" />
      <path
         id="path5-1-3"
         style="fill:#ffffff;fill-opacity:0;stroke:#000000;stroke-width:0.01;paint-order:markers fill stroke"
         d="m 60.09458,-175.20542 a 1,1 0 0 1 -1,1 1,1 0 0 1 -1,-1 1,1 0 0 1 1,-1 1,1 0 0 1 1,1 z"
         inkscape:label="Loch unten rechts3" />
      <path
         id="path6-81-5"
         style="fill:#ffffff;fill-opacity:0;stroke:#000000;stroke-width:0.01;paint-order:markers fill stroke"
         d="m 98.09458,-200.20542 a 1,1 0 0 1 -1,1 1,1 0 0 1 -1,-1 1,1 0 0 1 1,-1 1,1 0 0 1 1,1 z"
         inkscape:label="Loch oben rechts3" />
      <path
         id="path7-3-3"
         style="fill:#ffffff;fill-opacity:0;stroke:#000000;stroke-width:0.01;paint-order:markers fill stroke"
         d="m 98.09458,-175.20542 a 1,1 0 0 1 -1,1 1,1 0 0 1 -1,-1 1,1 0 0 1 1,-1 1,1 0 0 1 1,1 z"
         inkscape:label="Loch unten links3" />
      <path
         style="fill:#555555;fill-opacity:0;stroke:#000000;stroke-width:0.00824291;paint-order:markers fill stroke"
         d="m 65.0937,-210.23937 v 65.52483 H 91.08546 V -210.7063 H 65.0937 Z"
         id="path3-9-1"
         inkscape:label="Fensterausschnitt3" />
    </g>
    <g
       inkscape:groupmode="layer"
       id="layer7-2"
       inkscape:label="El4"
       transform="translate(124.91042,429.71043)"
       style="display:inline">
      <path
         id="path4-60-5"
         style="fill:#ffffff;fill-opacity:0;stroke:#000000;stroke-width:0.01;paint-order:markers fill stroke"
         d="m 134.09458,-200.20542 a 1,1 0 0 1 -1,1 1,1 0 0 1 -1,-1 1,1 0 0 1 1,-1 1,1 0 0 1 1,1 z"
         inkscape:label="Loch oben links4" />
      <path
         id="path5-26-7"
         style="fill:#ffffff;fill-opacity:0;stroke:#000000;stroke-width:0.01;paint-order:markers fill stroke"
         d="m 134.09458,-175.20542 a 1,1 0 0 1 -1,1 1,1 0 0 1 -1,-1 1,1 0 0 1 1,-1 1,1 0 0 1 1,1 z"
         inkscape:label="Loch unten rechts4" />
      <path
         id="path6-4-2"
         style="fill:#ffffff;fill-opacity:0;stroke:#000000;stroke-width:0.01;paint-order:markers fill stroke"
         d="m 172.09458,-200.20542 a 1,1 0 0 1 -1,1 1,1 0 0 1 -1,-1 1,1 0 0 1 1,-1 1,1 0 0 1 1,1 z"
         inkscape:label="Loch oben rechts4" />
      <path
         id="path7-30-8"
         style="fill:#ffffff;fill-opacity:0;stroke:#000000;stroke-width:0.01;paint-order:markers fill stroke"
         d="m 172.09458,-175.20542 a 1,1 0 0 1 -1,1 1,1 0 0 1 -1,-1 1,1 0 0 1 1,-1 1,1 0 0 1 1,1 z"
         inkscape:label="Loch unten links4" />
      <path
         style="fill:#555555;fill-opacity:0;stroke:#000000;stroke-width:0.00824291;paint-order:markers fill stroke"
         d="m 139.0937,-210.23937 v 65.52483 h 25.99176 V -210.7063 H 139.0937 Z"
         id="path3-5-1"
         inkscape:label="Fensterausschnitt4" />
    </g>
    <g
       inkscape:groupmode="layer"
       id="layer8-1"
       inkscape:label="El5"
       transform="translate(124.91042,429.71043)"
       style="display:inline">
      <path
         id="path4-0-2-3"
         style="fill:#ffffff;fill-opacity:0;stroke:#000000;stroke-width:0.01;paint-order:markers fill stroke"
         d="m 208.09458,-200.20542 a 1,1 0 0 1 -1,1 1,1 0 0 1 -1,-1 1,1 0 0 1 1,-1 1,1 0 0 1 1,1 z"
         inkscape:label="Loch oben links5" />
      <path
         id="path5-2-8-3"
         style="fill:#ffffff;fill-opacity:0;stroke:#000000;stroke-width:0.01;paint-order:markers fill stroke"
         d="m 208.09458,-175.20542 a 1,1 0 0 1 -1,1 1,1 0 0 1 -1,-1 1,1 0 0 1 1,-1 1,1 0 0 1 1,1 z"
         inkscape:label="Loch unten rechts5" />
      <path
         id="path6-8-4-4"
         style="fill:#ffffff;fill-opacity:0;stroke:#000000;stroke-width:0.01;paint-order:markers fill stroke"
         d="m 246.09458,-200.20542 a 1,1 0 0 1 -1,1 1,1 0 0 1 -1,-1 1,1 0 0 1 1,-1 1,1 0 0 1 1,1 z"
         inkscape:label="Loch oben rechts5" />
      <path
         id="path7-2-9-6"
         style="fill:#ffffff;fill-opacity:0;stroke:#000000;stroke-width:0.01;paint-order:markers fill stroke"
         d="m 246.09458,-175.20542 a 1,1 0 0 1 -1,1 1,1 0 0 1 -1,-1 1,1 0 0 1 1,-1 1,1 0 0 1 1,1 z"
         inkscape:label="Loch unten links5" />
      <path
         style="fill:#555555;fill-opacity:0;stroke:#000000;stroke-width:0.00824291;paint-order:markers fill stroke"
         d="m 213.0937,-210.23937 v 65.52483 h 25.99176 V -210.7063 H 213.0937 Z"
         id="path3-4-2-3"
         inkscape:label="Fensterausschnitt5" />
    </g>
    <g
       inkscape:groupmode="layer"
       id="layer9-5"
       inkscape:label="El6"
       transform="translate(124.91042,429.71043)"
       style="display:inline">
      <path
         id="path4-6-5-2"
         style="fill:#ffffff;fill-opacity:0;stroke:#000000;stroke-width:0.01;paint-order:markers fill stroke"
         d="m 282.09458,-200.20542 a 1,1 0 0 1 -1,1 1,1 0 0 1 -1,-1 1,1 0 0 1 1,-1 1,1 0 0 1 1,1 z"
         inkscape:label="Loch oben links6" />
      <path
         id="path5-1-6-5"
         style="fill:#ffffff;fill-opacity:0;stroke:#000000;stroke-width:0.01;paint-order:markers fill stroke"
         d="m 282.09458,-175.20542 a 1,1 0 0 1 -1,1 1,1 0 0 1 -1,-1 1,1 0 0 1 1,-1 1,1 0 0 1 1,1 z"
         inkscape:label="Loch unten rechts6" />
      <path
         id="path6-81-0-5"
         style="fill:#ffffff;fill-opacity:0;stroke:#000000;stroke-width:0.01;paint-order:markers fill stroke"
         d="m 320.09458,-200.20542 a 1,1 0 0 1 -1,1 1,1 0 0 1 -1,-1 1,1 0 0 1 1,-1 1,1 0 0 1 1,1 z"
         inkscape:label="Loch oben rechts6" />
      <path
         id="path7-3-0-0"
         style="fill:#ffffff;fill-opacity:0;stroke:#000000;stroke-width:0.01;paint-order:markers fill stroke"
         d="m 320.09458,-175.20542 a 1,1 0 0 1 -1,1 1,1 0 0 1 -1,-1 1,1 0 0 1 1,-1 1,1 0 0 1 1,1 z"
         inkscape:label="Loch unten link6" />
      <path
         style="fill:#555555;fill-opacity:0;stroke:#000000;stroke-width:0.00824291;paint-order:markers fill stroke"
         d="m 287.0937,-210.23937 v 65.52483 h 25.99176 V -210.7063 H 287.0937 Z"
         id="path3-9-0-5"
         inkscape:label="Fensterausschnitt6" />
    </g>
  </g>
  <g
     inkscape:groupmode="layer"
     id="layer2"
     inkscape:label="gravieren"
     style="display:none">
    <path
       id="path8"
       style="stroke:#000000;stroke-width:0.01;paint-order:markers fill stroke"
       d="m 31.005,80.505 a 2,2 0 0 1 -2,2 2,2 0 0 1 -2,-2 2,2 0 0 1 2,-2 2,2 0 0 1 2,2 z" />
    <path
       id="path9"
       style="stroke:#000000;stroke-width:0.01;paint-order:markers fill stroke"
       d="m 31.005,105.505 a 2,2 0 0 1 -2,2 2,2 0 0 1 -2,-2 2,2 0 0 1 2,-2 2,2 0 0 1 2,2 z" />
    <path
       id="path10"
       style="stroke:#000000;stroke-width:0.01;paint-order:markers fill stroke"
       d="m 69.005,80.505 a 2,2 0 0 1 -2,2 2,2 0 0 1 -2,-2 2,2 0 0 1 2,-2 2,2 0 0 1 2,2 z" />
    <path
       id="path11"
       style="stroke:#000000;stroke-width:0.01;paint-order:markers fill stroke"
       d="m 69.005,105.505 a 2,2 0 0 1 -2,2 2,2 0 0 1 -2,-2 2,2 0 0 1 2,-2 2,2 0 0 1 2,2 z" />
  </g>
</svg>
