<?xml version="1.0" encoding="UTF-8" standalone="no"?>
<!-- Created with Inkscape (http://www.inkscape.org/) -->

<svg
   width="600mm"
   height="400mm"
   viewBox="0 0 600 400"
   version="1.1"
   id="svg1"
   inkscape:version="1.3.2 (091e20e, 2023-11-25, custom)"
   sodipodi:docname="Seitenplatte_ObenUnten.svg"
   inkscape:export-filename="..\Drucken\Seriendruck\Seite_Oben_Unten.svg"
   inkscape:export-xdpi="96"
   inkscape:export-ydpi="96"
   xmlns:inkscape="http://www.inkscape.org/namespaces/inkscape"
   xmlns:sodipodi="http://sodipodi.sourceforge.net/DTD/sodipodi-0.dtd"
   xmlns="http://www.w3.org/2000/svg"
   xmlns:svg="http://www.w3.org/2000/svg">
  <sodipodi:namedview
     id="namedview1"
     pagecolor="#ffffff"
     bordercolor="#000000"
     borderopacity="0.25"
     inkscape:showpageshadow="2"
     inkscape:pageopacity="0.0"
     inkscape:pagecheckerboard="0"
     inkscape:deskcolor="#d1d1d1"
     inkscape:document-units="mm"
     inkscape:zoom="3.1962259"
     inkscape:cx="496.0538"
     inkscape:cy="38.639322"
     inkscape:window-width="1920"
     inkscape:window-height="991"
     inkscape:window-x="-9"
     inkscape:window-y="-9"
     inkscape:window-maximized="1"
     inkscape:current-layer="layer1" />
  <defs
     id="defs1" />
  <g
     inkscape:groupmode="layer"
     id="layer3"
     inkscape:label="nicht cutten"
     style="display:inline">
    <path
       style="fill:#ffffff;fill-opacity:0;stroke:#000000;stroke-width:0.00453339;paint-order:markers fill stroke"
       d="M 5.0022667,5.2954374 V 15.497733 H 18.497733 V 5.0022667 H 5.0022667 Z"
       id="path12" />
    <path
       style="display:inline;fill:#ffffff;fill-opacity:0;stroke:#000000;stroke-width:0.0026654;paint-order:markers fill stroke"
       d="m 153.50133,8.1967897 v 6.8018783 h 6.99734 V 8.0013327 h -6.99734 z"
       id="path12-4"
       inkscape:label="mitte" />
    <path
       style="display:inline;fill:#ffffff;fill-opacity:0;stroke:#000000;stroke-width:0.00247501;paint-order:markers fill stroke"
       d="m 5.0012375,147.68274 v 6.31603 h 6.4975255 v -6.49753 H 5.0012375 Z"
       id="path12-0" />
    <path
       style="fill:#ffffff;fill-opacity:0;stroke:#000000;stroke-width:0.00752749;paint-order:markers fill stroke"
       d="M 474.99623,6.1415018 V 15.496236 H 461.50376 V 5.0037638 h 13.49247 z"
       id="path13" />
    <path
       style="display:inline;fill:#ffffff;fill-opacity:0;stroke:#000000;stroke-width:0.00410964;paint-order:markers fill stroke"
       d="m 474.99794,99.206435 v 5.791515 h -6.49589 v -6.495895 h 6.49589 z"
       id="path13-0" />
    <path
       style="display:inline;fill:#ffffff;fill-opacity:0;stroke:#000000;stroke-width:0.00410964;paint-order:markers fill stroke"
       d="m 474.99794,148.20643 v 5.79151 h -6.49589 v -6.49589 h 6.49589 z"
       id="path13-6" />
    <path
       style="display:inline;fill:#ffffff;fill-opacity:0;stroke:#000000;stroke-width:0.00410964;paint-order:markers fill stroke"
       d="m 474.99794,154.70643 v 5.79151 h -6.49589 v -6.49589 h 6.49589 z"
       id="path13-6-6" />
  </g>
  <g
     inkscape:groupmode="layer"
     id="layer11"
     inkscape:label="oben">
    <g
       inkscape:label="Rahmen"
       inkscape:groupmode="layer"
       id="layer1">
      <path
         style="fill:#ffffff;fill-opacity:0;stroke:#000000;stroke-width:0.037427;paint-order:markers fill stroke"
         d="M 5.0187134,9.2544165 V 104.98129 H 474.98129 V 5.0187135 H 5.0187134 Z"
         id="path1"
         inkscape:label="Gesamtausschnitt" />
      <path
         id="path7-0"
         style="fill:#ffffff;fill-opacity:0;stroke:#000000;stroke-width:0.00999998;paint-order:markers fill stroke"
         d="m 19.455,94.505 a 1.0000006,1 0 0 1 -1,1 1.0000006,1 0 0 1 -1,-1 1.0000006,1 0 0 1 1,-1 1.0000006,1 0 0 1 1,1 z"
         inkscape:label="Loch unten links" />
      <path
         id="path7-0-0-7-4-4-1-7-4"
         style="fill:#ffffff;fill-opacity:0;stroke:#000000;stroke-width:0.00999998;paint-order:markers fill stroke"
         d="m 136.005,101.495 a 1.0000006,1 0 0 1 -1,1 1.0000006,1 0 0 1 -1,-1 1.0000006,1 0 0 1 1,-1 1.0000006,1 0 0 1 1,1 z"
         inkscape:label="Loch unten links mitte" />
      <path
         id="path7-0-0-7-4-4-1-7"
         style="fill:#ffffff;fill-opacity:0;stroke:#000000;stroke-width:0.00999998;paint-order:markers fill stroke"
         d="m 346.005,101.495 a 1.0000006,1 0 0 1 -1,1 1.0000006,1 0 0 1 -1,-1 1.0000006,1 0 0 1 1,-1 1.0000006,1 0 0 1 1,1 z"
         inkscape:label="Loch unten rechts mitte" />
      <path
         id="path7-0-0-7-4"
         style="fill:#ffffff;fill-opacity:0;stroke:#000000;stroke-width:0.00999998;paint-order:markers fill stroke"
         d="m 462.505,94.505 a 1.0000006,1 0 0 1 -1,1 1.0000006,1 0 0 1 -1,-1 1.0000006,1 0 0 1 1,-1 1.0000006,1 0 0 1 1,1 z"
         inkscape:label="Loch unten rechts" />
      <path
         id="path7-0-0-7"
         style="fill:#ffffff;fill-opacity:0;stroke:#000000;stroke-width:0.00999998;paint-order:markers fill stroke"
         d="m 462.505,15.454999 a 1.0000006,1 0 0 1 -1,1 1.0000006,1 0 0 1 -1,-1 1.0000006,1 0 0 1 1,-0.999999 1.0000006,1 0 0 1 1,0.999999 z"
         inkscape:label="Loch oben rechts" />
      <path
         id="path7-0-0-7-4-4-1"
         style="fill:#ffffff;fill-opacity:0;stroke:#000000;stroke-width:0.00999998;paint-order:markers fill stroke"
         d="m 346.005,8.505 a 1.0000006,1 0 0 1 -1,1 1.0000006,1 0 0 1 -1,-1 1.0000006,1 0 0 1 1,-1 1.0000006,1 0 0 1 1,1 z"
         inkscape:label="Loch oben rechts mitte" />
      <path
         id="path7-0-0-7-4-4"
         style="fill:#ffffff;fill-opacity:0;stroke:#000000;stroke-width:0.00999998;paint-order:markers fill stroke"
         d="m 136.005,8.505 a 1.0000006,1 0 0 1 -1,1 1.0000006,1 0 0 1 -1,-1 1.0000006,1 0 0 1 1,-1 1.0000006,1 0 0 1 1,1 z"
         inkscape:label="Loch oben links mitte" />
      <path
         id="path7-0-0"
         style="fill:#ffffff;fill-opacity:0;stroke:#000000;stroke-width:0.00999998;paint-order:markers fill stroke"
         d="m 19.455,15.455 a 1.0000006,1 0 0 1 -1,1 1.0000006,1 0 0 1 -1,-1 1.0000006,1 0 0 1 1,-1 1.0000006,1 0 0 1 1,1 z"
         inkscape:label="Loch oben links" />
    </g>
  </g>
</svg>
